<svg width="1280" height="400" viewBox="0 0 1280 400" xmlns="http://www.w3.org/2000/svg">
  <defs>
    <linearGradient id="bg" x1="0%" y1="0%" x2="100%" y2="100%">
      <stop offset="0%" style="stop-color:#0d1117"/>
      <stop offset="100%" style="stop-color:#161b22"/>
    </linearGradient>
    <linearGradient id="accent" x1="0%" y1="0%" x2="100%" y2="0%">
      <stop offset="0%" style="stop-color:#F97316"/>
      <stop offset="100%" style="stop-color:#ea580c"/>
    </linearGradient>
    <linearGradient id="glow" x1="0%" y1="0%" x2="100%" y2="100%">
      <stop offset="0%" style="stop-color:#F9731620"/>
      <stop offset="100%" style="stop-color:#ea580c00"/>
    </linearGradient>
  </defs>
  <rect width="1280" height="400" fill="url(#bg)"/>
  <ellipse cx="200" cy="200" rx="300" ry="200" fill="url(#glow)"/>
  <g opacity="0.04" stroke="#ffffff" stroke-width="1">
    <line x1="0" y1="80" x2="1280" y2="80"/><line x1="0" y1="160" x2="1280" y2="160"/>
    <line x1="0" y1="240" x2="1280" y2="240"/><line x1="0" y1="320" x2="1280" y2="320"/>
    <line x1="160" y1="0" x2="160" y2="400"/><line x1="320" y1="0" x2="320" y2="400"/>
    <line x1="480" y1="0" x2="480" y2="400"/><line x1="640" y1="0" x2="640" y2="400"/>
    <line x1="800" y1="0" x2="800" y2="400"/><line x1="960" y1="0" x2="960" y2="400"/>
    <line x1="1120" y1="0" x2="1120" y2="400"/>
  </g>
  <rect x="0" y="0" width="1280" height="3" fill="url(#accent)"/>
  <!-- Alert/warning decoration -->
  <polygon points="1050,60 1150,230 950,230" fill="none" stroke="#F97316" stroke-width="1.5" opacity="0.25"/>
  <polygon points="1050,90 1130,215 970,215" fill="#F9731608"/>
  <polygon points="1050,80 1140,225 960,225" fill="none" stroke="#F97316" stroke-width="1" opacity="0.1"/>
  <!-- Pulse rings -->
  <circle cx="1050" cy="170" r="20" fill="none" stroke="#F97316" stroke-width="2" opacity="0.5"/>
  <circle cx="1050" cy="170" r="35" fill="none" stroke="#F97316" stroke-width="1" opacity="0.3"/>
  <circle cx="1050" cy="170" r="50" fill="none" stroke="#F97316" stroke-width="1" opacity="0.15"/>
  <circle cx="1050" cy="170" r="8" fill="#F97316" opacity="0.8"/>
  <!-- Badge -->
  <rect x="80" y="100" width="130" height="28" rx="14" fill="#F9731620" stroke="#F97316" stroke-width="1"/>
  <text x="145" y="119" font-family="monospace" font-size="12" fill="#F97316" text-anchor="middle">SKILL.md</text>
  <!-- Title -->
  <text x="80" y="200" font-family="-apple-system, BlinkMacSystemFont, 'Segoe UI', sans-serif" font-size="52" font-weight="700" fill="#ffffff" letter-spacing="-1">Crypto Crisis</text>
  <text x="80" y="258" font-family="-apple-system, BlinkMacSystemFont, 'Segoe UI', sans-serif" font-size="52" font-weight="700" fill="#F97316" letter-spacing="-1">Communications</text>
  <text x="80" y="310" font-family="-apple-system, BlinkMacSystemFont, 'Segoe UI', sans-serif" font-size="18" fill="#8b949e">Respond to exploits, FUD, market crashes, and governance attacks — fast</text>
  <rect x="80" y="340" width="88" height="24" rx="12" fill="#F9731610" stroke="#F9731640" stroke-width="1"/>
  <text x="124" y="357" font-family="monospace" font-size="11" fill="#F97316" text-anchor="middle">8 modules</text>
  <rect x="180" y="340" width="130" height="24" rx="12" fill="#F9731610" stroke="#F9731640" stroke-width="1"/>
  <text x="245" y="357" font-family="monospace" font-size="11" fill="#F97316" text-anchor="middle">Crisis-ready 24/7</text>
  <rect x="322" y="340" width="100" height="24" rx="12" fill="#F9731610" stroke="#F9731640" stroke-width="1"/>
  <text x="372" y="357" font-family="monospace" font-size="11" fill="#F97316" text-anchor="middle">OpenClaw</text>
</svg>
